<svg id="Layer_1" data-name="Layer 1" xmlns="http://www.w3.org/2000/svg" viewBox="0 0 512 512"><rect width="512" height="512" rx="145.71" fill="#574ae2"/><path d="M264.6,74l-3.91.28c6.52,5.27,13.83,8.15,20.45,12.14,15.15,9.13,30.73,17.56,46.07,26.4,25.93,14.94,51.67,30.23,77.81,44.82,7.85,4.39,11,9.89,10.93,18.72-.29,31.42-.1,62.83-.1,94.25,0,22.58-.12,45.17,0,67.75.05,7-2.31,11.79-8.7,15.43-39,22.23-77.86,44.78-116.75,67.23-8.73,5-17.51,10-26.14,15.23-5.56,3.35-10.82,3.58-16.52.26Q190.19,403,132.48,369.7c-8.59-5-17.12-10.05-25.93-14.62-7.25-3.75-10.8-8.72-10.49-17.38.61-16.51.17-33.07.17-49.61,0-38.68.08-77.37,0-116,0-5.67,2.14-9.48,7.06-12.29,24.7-14.16,49.47-28.2,73.9-42.82,11.74-7,24.22-12.73,35.62-20.25,8.57-5.66,18.35-9.23,26.46-15.58a38.56,38.56,0,0,1,20.64-7.89A7.13,7.13,0,0,1,264.6,74ZM393.22,246.63h0c0-21.33-.08-42.65.06-64,0-3.73-1.26-6.06-4.48-7.84C382,171,375.3,167,368.52,163.12c-24.27-13.9-48.59-27.71-72.81-41.7-12-6.91-23.75-14.15-35.63-21.24-2.15-1.29-4.61-2.63-6.82-.84-8.2,6.66-19.79,8.3-26.15,17.66-.17.25-.8.16-1.2.29-2.65.88-5.53,1.37-7.91,2.73-30.78,17.63-61.43,35.48-92.26,53-5,2.82-7.09,5.92-7,11.82.28,34.48.36,69,0,103.44-.13,13.79.28,27.56,0,41.34-.07,4,.88,6.71,4.7,8.66,6.22,3.19,12.16,6.92,18.21,10.42q54.72,31.67,109.39,63.37c3.34,1.95,6,1.95,9.39,0q64.41-37.33,129-74.37a6.89,6.89,0,0,0,3.76-6.76c-.06-8.24-.36-16.47-.16-24.73C393.55,286.35,393.22,266.49,393.22,246.63Z" fill="#fff"/><path d="M145.17,258.08c0-18.55,0-37.11,0-55.67,0-12.83,9.22-18,20.38-11.49,12,6.93,24.05,13.67,35.91,20.77,3.16,1.89,5.41,1,8.07-.56,12.79-7.44,25.71-14.68,38.42-22.24,5.38-3.2,10.41-3.12,15.65-.1,12.83,7.4,25.72,14.68,38.43,22.27,3.21,1.92,5.71,2.23,8.92.2,5.35-3.39,10.9-6.49,16.45-9.55,3-1.68,3.57-2.9.15-4.87Q293.91,177.52,260.39,158c-3-1.76-5.64-1.83-8.64,0q-11.5,6.9-23.21,13.49a7.76,7.76,0,0,0-4.09,6.15c-1.43,9-8.2,16.81-16.18,18.23-9.48,1.69-18.29.38-24.51-8a23,23,0,0,1-1.25-26.17,22.49,22.49,0,0,1,25.9-9.74,10.64,10.64,0,0,0,9.18-1.14c10.23-6,20.63-11.77,30.89-17.76,5-2.91,9.63-3,14.7-.08q46.65,27.08,93.39,54c2.65,1.54,5.53,2.83,7.36,5.5,4.24,6.16,2.25,13.88-4.7,17.88-11.42,6.58-22.79,13.25-34.34,19.6-4.6,2.52-6.84,5.51-6.67,11.11.42,13.5,0,27,.18,40.53.1,7.58-2.72,12.94-9.55,16.67-12.7,6.95-25.11,14.42-37.71,21.55-2.38,1.35-3.67,2.89-3.61,5.73.13,6.51.09,13,0,19.53,0,3.63,1.08,4.92,4.62,2.87q33.79-19.57,67.65-39a6.52,6.52,0,0,0,3.58-6.35c-.09-8.79-.13-17.58,0-26.37.06-3.32-1.57-5.35-3.82-7.45-6.73-6.3-9.2-14.07-6.93-23.06,2.18-8.65,7.82-14,16.39-16.4,8.37-2.33,18.58,1,23.7,7.68,6,7.86,6.91,18.31,1.92,26.1-1.76,2.74-1.86,6.52-6.28,7.88-2.61.8-2.21,5.08-2.21,8,0,10.74-.13,21.47.1,32.2.14,6.77-2.61,11.09-8.59,14.48-25.19,14.29-50.16,29-75.22,43.48-6.06,3.51-12.07,7.1-18.25,10.37-11.41,6-19.78,1.25-20.11-11.68q-.5-19.77,0-39.55c.13-5-1.77-7.65-6-10-12.53-6.93-24.8-14.31-37.27-21.34-5-2.8-7-6.83-7-12.39.08-15-.09-30,.1-44.93,0-3.94-1.32-6.36-4.73-8.19-5.3-2.85-10.4-6.07-15.63-9.05-3.78-2.15-4.91-1.56-4.92,2.86-.05,25.88,0,51.76,0,77.64,0,2.69.8,4.7,3.22,6.07q12.1,6.84,24.17,13.77c2.29,1.32,4.49,1.2,7,.41,10-3.14,20,0,25.8,7.76,6.07,8.17,6.22,18.57.41,27.42-4.47,6.79-14.57,10.64-23.33,8.9-9-1.8-16.56-8.9-17.62-17.4-.5-3.94-2.37-6-5.57-7.84-11.45-6.5-22.71-13.37-34.26-19.71-3-1.62-3.65-3.55-3.64-6.44q0-28.8,0-57.61Zm147.41-1.58c0-5.69-.09-11.38,0-17.07a6.24,6.24,0,0,0-3.64-6.22c-9.93-5.56-19.77-11.27-29.57-17a6.39,6.39,0,0,0-7.25.09c-9.47,5.68-19,11.29-28.62,16.72a7.05,7.05,0,0,0-4.08,7q.19,16.57,0,33.15a6.92,6.92,0,0,0,3.81,6.74q15,8.58,30,17.33c2.16,1.27,4,.69,5.93-.42,10-5.8,19.92-11.65,29.95-17.34a6.42,6.42,0,0,0,3.51-6.37C292.51,267.56,292.58,262,292.58,256.5Z" fill="#fff"/></svg>